<svg width="420" height="1200" viewBox="0 0 420 1200" fill="none" xmlns="http://www.w3.org/2000/svg">
  <defs>
    <linearGradient id="bg" x1="0" y1="0" x2="0" y2="1">
      <stop offset="0%" stop-color="#EAF0F6"/>
      <stop offset="100%" stop-color="#C9D3DF"/>
    </linearGradient>
    <linearGradient id="shine" x1="0" y1="0" x2="1" y2="1">
      <stop offset="0%" stop-color="#FFFFFF" stop-opacity="0.85"/>
      <stop offset="100%" stop-color="#B6C2D0" stop-opacity="0.05"/>
    </linearGradient>
  </defs>
  <rect width="420" height="1200" fill="url(#bg)"/>
  <rect x="24" y="36" width="372" height="1128" rx="18" fill="#B9C3CF" opacity="0.22"/>
  <rect x="46" y="60" width="328" height="1080" rx="14" fill="#D8DEE6" opacity="0.8"/>
  <rect x="66" y="96" width="288" height="1008" rx="10" fill="#EFF3F7" opacity="0.56"/>
  <g opacity="0.9">
    <rect x="82" y="132" width="256" height="76" rx="8" fill="#AEB9C7"/>
    <rect x="82" y="234" width="256" height="76" rx="8" fill="#AEB9C7"/>
    <rect x="82" y="336" width="256" height="76" rx="8" fill="#AEB9C7"/>
    <rect x="82" y="438" width="256" height="76" rx="8" fill="#AEB9C7"/>
    <rect x="82" y="540" width="256" height="76" rx="8" fill="#AEB9C7"/>
    <rect x="82" y="642" width="256" height="76" rx="8" fill="#AEB9C7"/>
    <rect x="82" y="744" width="256" height="76" rx="8" fill="#AEB9C7"/>
    <rect x="82" y="846" width="256" height="76" rx="8" fill="#AEB9C7"/>
    <rect x="82" y="948" width="256" height="76" rx="8" fill="#AEB9C7"/>
  </g>
  <g opacity="0.7">
    <rect x="104" y="154" width="212" height="14" rx="7" fill="#F7FAFD"/>
    <rect x="104" y="256" width="212" height="14" rx="7" fill="#F7FAFD"/>
    <rect x="104" y="358" width="212" height="14" rx="7" fill="#F7FAFD"/>
    <rect x="104" y="460" width="212" height="14" rx="7" fill="#F7FAFD"/>
    <rect x="104" y="562" width="212" height="14" rx="7" fill="#F7FAFD"/>
    <rect x="104" y="664" width="212" height="14" rx="7" fill="#F7FAFD"/>
    <rect x="104" y="766" width="212" height="14" rx="7" fill="#F7FAFD"/>
    <rect x="104" y="868" width="212" height="14" rx="7" fill="#F7FAFD"/>
    <rect x="104" y="970" width="212" height="14" rx="7" fill="#F7FAFD"/>
  </g>
  <rect x="120" y="106" width="180" height="16" rx="8" fill="#F7FAFD" opacity="0.75"/>
  <rect x="96" y="1034" width="228" height="18" rx="9" fill="url(#shine)" opacity="0.8"/>
  <rect x="130" y="0" width="160" height="1200" fill="#FFFFFF" opacity="0.12"/>
</svg>